<svg xmlns="http://www.w3.org/2000/svg" viewBox="0 0 109 91.4" fill="#009edb"><path d="M86.4 83.2a14.18 14.18 0 0 1-9.3 1.1c-2.2-.5-4.2-1.2-6.2-2.1l-4.4-1.8c-3.8-1.2-7.9-1.3-11.8-.3h-.4c-3.9-1.1-8-1-11.8.3-1.5.5-2.9 1.2-4.4 1.8-2 .9-4.1 1.7-6.2 2.2-3.1.7-6.4.3-9.3-1.1l-.4-.2c-.1 0-.1 0-.1.1 1.9 2 4.4 3.4 7 4.1 1.8.5 3.7.6 5.5.4 2.8-.4 5.5-1.4 7.8-3l4.2-2.8c1.6-1 3.5-1.4 5.3-1 1 .1.2.6.1.7-2.5 1.2-4.9 2.7-7.1 4.4-1.5 1.1-4.2 3.7-4.2 3.7l2 1.7 2.2-2.4c2.7-2.8 5.8-5.2 9.2-7.1.3-.2.6-.2.9 0 3.4 1.9 6.5 4.3 9.2 7.1l2.2 2.4 2-1.7-4.2-3.7c-2.2-1.7-4.6-3.2-7.1-4.4-.2-.1-.9-.6.1-.7 1.8-.4 3.7 0 5.3 1l4.2 2.8c2.3 1.6 5 2.6 7.8 3 1.8.2 3.7.1 5.5-.4 2.6-.8 5.1-2.2 7-4.1 0 0-.1-.1-.2-.1l-.4.1m9.8-8.7c-1.3 1-2.7 1.7-4.2 2.2-2.1.6-4.4 1-6.6 1-2.9.1-5.7.3-8.6.7-.2 0-.3 0-.2-.1 2.5-1 4.5-3 5.6-5.4l2.8-5.7V67c-.2.1-3 2.5-4.3 3.7L76 75.3c-2.1 1.8-4.6 3.1-7.3 3.8h-.1l-.1.1 5.4 1.3c2.3.7 4.7 1.1 7.1 1.3 6.1.6 12-2.2 15.4-7.2 0-.1-.1-.1-.2-.1m8.8-13.4c-1.4 1.7-3.1 3.2-5 4.4-1.6 1.1-3.3 2-5.1 2.8-2.3.9-4.4 2.2-6.3 3.7l-.4.3c-.1 0-.1 0-.1-.1s3-3.1 3.9-9.4c.1-2.3.5-4.5 1-6.7v-.2c-2.1 2.6-3.7 5.5-4.8 8.6l-1.8 5.1c-.7 2.3-2 4.4-3.7 6.1l-.2.2v.1c.2 0 .4-.1.6-.1l5.8-1.2c3.2-.5 6.2-1.8 8.8-3.7 2.7-1.9 4.8-4.5 6.3-7.4.4-.8.7-1.6 1-2.5.2-.1.1-.1 0 0m3.8-15c-.9 2.7-2.5 5.2-4.6 7.2-2.4 2.3-4.6 4.9-6.6 7.5 0 .1-.2 0-.1-.1.8-2.7 1-5.6.6-8.5-.4-2.4-1.4-5-1.7-7.9l-.1-.1c0 .1-.1.2-.1.3a28.46 28.46 0 0 0-1.2 5.8c-.1 2.4.3 5.5.1 7.9-.2 2.8-.4 5.7-1.7 8.2v.2l6-3.7c2.5-1.6 4.6-3.6 6.3-6 2.2-3.1 3.3-6.7 3.3-10.5V46c-.1 0-.2.1-.2.1"/><path d="M102.4 47.7h0c0 .1 0 0 0 0l-.1-2.4c-.2-2.8-1.9-5.1-3.4-7.5-1-1.5-1.9-3.1-2.7-4.8 0 0-.1-.1-.2-.1 0 .2 0 1.1.1 1.6a48.71 48.71 0 0 0 3 11.8c.9 2.4 1.2 4.9 1 7.4 0 .2 0 .2.1.3.9-1.3 2.7-3.1 3.8-4.5s7.1-8.2 4.2-17.6c-.1-.4-.3-.8-.5-1.2l-.1.1c0 6.8-3.3 9.7-4.6 14.3-.3 1.1-.5 1.9-.6 2.6m.1-14l-.6-1.6-.4-.9c-1-1.8-2.4-3.4-4.1-4.6-1.4-1.2-2.6-2.5-3.6-4h-.3c.1.3 1 3.3 1.6 4.7 1 1.9 2.2 3.8 3.6 5.4l.3.4a26.8 26.8 0 0 1 3.9 7.5c0 .1.1.1.1.1l1.7-5.2c.6-1.8 1.1-3.7 1.5-5.6.6-4.5-.8-10.2-3.4-13.4 0 0-.1.1-.1.2l.1.4.2.6c.5 2.4.6 5 .1 7.4-.4 1.9-.5 3.9-.5 5.9 0 .3.2 2.8.2 2.9s-.1 0-.2 0M94.5 8.6c.8.8 1.5 1.7 1.9 2.8.7 1.7.9 4.2 1.4 6.1l.9 3.3c0 .1-.1.2-.2.1-1.5-1.8-3.3-3.3-5.4-4.5-1.4-.8-2.5-1.9-3.5-3.1l-.5-.7s-.1-.1-.2 0v.3c.5 2.2 1.5 4.3 3.1 6 1.3 1.2 2.7 2.3 4 3.4 1.7 1.4 3.3 3.1 4.8 4.8 0 0 .1.1.1 0v-1.6l.1-4.8v-1.6c0-1.6-.3-3.3-.9-4.8-1-2.5-2.9-4.5-5.2-5.7-.1-.1-.3-.1-.5-.2 0 0 0 .1.1.2M84.2 3.9c1.4 1.3 2.6 2.8 3.7 4.4 1 1.6 2.1 3 3.5 4.3.9.9 3.6 3 4.3 3.6-.1-.8-1.4-6.5-4.9-9.3-2-1.6-4.4-2.8-6.9-3.4v.2l.3.2m-56 77.9c2.3-.2 4.7-.6 6.9-1.3l5.4-1.3h.1s0-.1-.1-.1h-.1c-2.7-.7-5.2-2-7.4-3.8l-4.7-4.5-4.3-3.7v.2c.4.6 1.9 3.9 2.8 5.7 1.1 2.5 3.1 4.4 5.6 5.4.1.1 0 .1-.2.1-2.8-.4-5.7-.6-8.6-.7-2.2 0-4.5-.4-6.6-1-1.5-.5-2.9-1.2-4.2-2.2h-.2c2 2.8 4.8 5 8 6.2 2.5.8 5 1.1 7.6 1m-2.3-5.9c.2 0 .3.1.6.1v-.1l-.2-.2c-1.7-1.7-2.9-3.8-3.7-6.1l-1.8-5.1c-1.1-3.1-2.7-6-4.8-8.6v.2c.6 2.2.9 4.4 1.1 6.7C18 69 21 72 21 72.1s0 .2-.1.1l-.4-.3c-1.9-1.5-4-2.8-6.3-3.7-1.8-.8-3.5-1.7-5.1-2.8-1.9-1.2-3.6-2.7-5-4.4H4c.3.8.6 1.6 1 2.4 1.5 2.9 3.7 5.5 6.4 7.4 2.6 2 5.6 3.3 8.8 3.7 1.9.5 3.8 1 5.7 1.4m-16.1-13l6 3.7s.1-.1.1-.2c-1.3-2.6-1.5-5.4-1.7-8.2-.2-2.5.2-5.5.1-7.9-.2-2-.6-4-1.2-5.9 0-.1-.1-.2-.1-.3l-.1.1c-.2 2.9-1.3 5.5-1.7 7.9-.4 2.8-.2 5.7.6 8.5.1.1-.1.2-.1.1a59.04 59.04 0 0 0-6.6-7.5c-2.1-2-3.7-4.4-4.6-7.1 0 0-.1-.1-.2-.1s0 .2 0 .4c0 3.7 1.1 7.4 3.3 10.5 1.6 2.3 3.7 4.4 6.2 6m-1.1-8.8c.1-.1.1-.1.1-.3-.2-2.5.1-5.1 1.1-7.4a58.34 58.34 0 0 0 3-11.8c0-.5.1-1.4.1-1.6-.1 0-.1 0-.1.1-.8 1.7-1.7 3.3-2.7 4.8-1.6 2.2-3.2 4.6-3.4 7.4-.1.8-.1 1.6 0 2.4 0 0 0 .1-.1.1v-.1L6 45.3C4.6 40.7 1.4 37.8 1.4 31l-.1-.1c-.2.4-.3.8-.5 1.2-2.9 9.4 3 16.2 4.2 17.6s2.8 3.1 3.7 4.4M4.5 35.4l1.7 5.2s.1 0 .1-.1c.9-2.7 2.3-5.2 3.9-7.5l.3-.4a31.72 31.72 0 0 0 3.6-5.4c.6-1.4 1.5-4.4 1.6-4.7h-.3c-1 1.5-2.2 2.8-3.6 4-1.7 1.2-3.2 2.8-4.2 4.7-.1.3-.3.6-.4.9l-.6 1.7s-.1.2-.1 0 .2-2.5.2-2.9c0-2-.2-4-.6-5.9-.5-2.5-.4-5 .1-7.4 0-.2.1-.4.2-.6 0-.1.1-.3.1-.4s0-.1-.1-.2c-2.6 3.2-4.1 9-3.5 13.4.5 1.9 1 3.8 1.6 5.6m3.6-14.6l.1 4.8v1.5h.1c1.4-1.8 3-3.4 4.7-4.9l4-3.4c1.6-1.7 2.6-3.8 3.1-6v-.3H20l-.5.7c-.9 1.2-2.1 2.3-3.4 3.1-2.4 1.5-4 2.6-5.4 4.5-.1.1-.2.1-.1-.1l.9-3.3c.5-1.9.7-4.4 1.4-6.1.4-1 1.1-2 1.9-2.8v-.2c-.2 0-.3.1-.5.2-2.5 1.3-4.3 3.4-5.3 5.8-.6 1.5-1 3.1-.9 4.8v1.7m5.3-4.7h0l4.4-3.6c1.3-1.3 2.5-2.7 3.5-4.3s2.3-3.1 3.7-4.4l.3-.3v-.2c-2.5.6-4.9 1.7-6.9 3.4-3.7 2.9-4.9 8.6-5 9.4m40.2 31c.3-.4-.4-.7-.6 0s.3.5.6 0m7.6-17.6c-.3-.1-1.4 1.2-1.2 1.4.5-.3.9-.8 1.2-1.4m.2-.2c.2.1.9-.3.8-.4s-1-.5-1-.3c0 .4.1.6.2.7m13.5 12.4c.4-.1.3-.7 0-.7s-.7.5-.6.5.4.3.6.2M70 28.4c-.3 0-.4.3-.1.5.3.1.5 0 .7-.1s.4-.3.4-.6-.4-.7-.2-.9.5.1.7 0a.55.55 0 0 0 .3-.5c0-.2-.1-.8-.5-.8s-.8.8-.8.8c-.1.2-.1.5 0 .7.1.4 0 .9-.5.9"/><path d="M76.6 28.5c0 .2.5 1.5.6 1.8s.2 1.4.4 1.3.2-.7.1-1a12.91 12.91 0 0 0-.5-2.1c-.1-.4-.8-1.9-1-1.8s.3 1 .4 1.4-.1.2 0 .4m-3.5-17c.3.1.3-.5-.2-.9s-1.3-.2-1.1 0c.4.3.8.7 1.3.9m-15-4.3c-.7-.4-.1-1-.6-1.4-.6-.2-1.2-.1-1.6.3-.5.6.6.4.9.6s1.3.9 1.4.8 0-.3-.1-.3m4-2c-.9-.4-4.2-.4-4.1.5s1.9 0 2.4 0 2.5-.1 1.7-.5M53 43.8c-.2-.1-.5.1-.6-.1s-.3-.1-.3 0-.1.3.1.5a.61.61 0 0 0 .8 0c.1-.1.1-.3 0-.4m-1.9-6.7c.3 0 .3-.2.4-.2s0 .2.3.2.6-.7-.3-.7c-.7 0-.6.7-.4.7m1.2.8c-.5-.1-.4.2-.8.2-.6.1-.1-.4-.3-.6-.1-.1-.4.4-.5.7 0 .2 0 .6.2.7l1.9.2c.4 0 0-1.1-.5-1.2m-6.2 6.5c.2 0 .3-.6.2-.9s-.7-.1-.7.1.4.8.5.8m-8 0c0-.2 0-1-.2-1.2s-.2.1-.3.1-.1-.4-.2-.4 0 .6.2 1 .5 1 .5.5m-.2-1.8c.2-.6.3-1.2.3-1.8 0-.5-.3-.9-.4-.9s0 .3.1.8c0 .5-.2 1-.3 1.5 0 .1.2.6.3.4"/><path d="M27.7 65c14.9 14.9 38.9 14.9 53.8 0s14.9-38.9 0-53.8-38.9-14.9-53.8 0-14.9 39 0 53.8m-9.5-26.1H24c.1 3 .6 5.9 1.5 8.7-.3-.1-.6-.2-.9-.4-.4-.2-.7.1-.8.1-.4 0-.9-.3-.9 0s.4.1.4.3-1 .2-1.1-.2-.3-.8-.4-.3-.5.4-.7.5c-.1.1-.2.3-.2.5s-.5.1-.5.4.3.4.4.7.4.5.2.6-.1-.1-.3 0 .9 3.1 1.1 3-.3-1-.3-1.4.1-.5.4-.7 1.1 1.2 1.4 1-.1-.4.2-.5 1.2 1.3 1.5.9c.2-.3.4.2.4.3.3.5.8.5 1.1 1.1s1 1.7 1.5 1.7.2-.5.4-.5.4.7.7 1.1c.2.3.5.5.9.6.7.9 1.5 1.8 2.3 2.7l-4.1 4.1c-6.3-6.4-9.9-15.1-10-24.3m33.1-8.3l-.4.2c-.6.3-1.1.6-1.5 1l-4.1-4.1c2.4-2.1 5.4-3.4 8.5-3.5V30c-.7.1-1.4.2-2.1.5.2-.4.6-.8.6-.8s-.7.4-1 .9m-3.1 9.5s0 .1 0 0v.2c0-.2-.1-.3-.2-.5-.1-.1-.2-.2-.3-.2h-.5l-.2.1h-1.4c-.2 0-.3 0-.3-.1-.1-.4.5-.1.9-1.3.1-.1.1-.3.2-.4l.1-.2.2-.2c.2-.2.4-.2.6-.2h.2l.2.2.3.6c.1.1.2.1.2.2.2.1.3.2.4.3l.1.1v.1c.1.1.1.1.2.1h.4c.2-.1.2 0 .3 0v.1c0 .1 0 .1-.1.2 0 .1-.1.1-.1.2-.1.1-.2.2-.3.2-.2 0-.4-.1-.5-.1s-.2 0-.2.1v.5m-11 9.6c-.3-.5-.4-1.2-.4-1.8s-.2-1.2-.5-1.7c-.1-.4-.2-.8-.2-1.2 0-.7-.6-.5-.6-.7s.5 0 .5-.2-.6-1-1.1-1.2-.3-.5-.3-.8 0-.6-.2-.8c-.1-.4 0-1.1.5-1.1.2 0 .5.2.8 0s.1-.8.1-1.3h2.8c0 .4.1.9.1 1.3-.2.1-.3.3-.2.4s.2.2.3.1a15.47 15.47 0 0 0 3.8 7.8l-4.1 4.1c-.3-.3-.6-.7-.9-1.1v-.3c0-.7-.5-1.1-.7-1.7m-3.6-6.8c-.3-1.2-.4-2.5-.5-3.8h2.4c-.2.3-.7.6-.8.9s-.7 1.3-.3 1.7c.9 1-.2 1.4-.8 1.2m.5 14.8l-.5.5-.7-.7c.4-.2.8-.1 1.2.2m6.2-25.7c-.1 0-.1.1-.2.1-.3.3-1.1.2-1 .5s2.2-.7 2.2-.5-.9.5-1.5.8-.8.8-1.8.8c-.5 0-.7.4-.9.7-.3.4-.5.8-.7 1.2 0 .6-.1 1.2-.4 1.8H33a21.62 21.62 0 0 1 5.7-13.8l4.1 4.1c-1 1.4-1.9 2.8-2.6 4.3m3.8-3l3.6 3.6h-.4c-.4 0-.4-.3-.7-.3-.6.1-.7.3-.8.2-.4-.4-.9-.7-1.5-1-.7-.2-1.4-.2-2 .1-.1 0-.1.1-.2.1.7-.9 1.4-1.8 2-2.7m-5 7.3c0 .4-.1.8-.1 1.2h-2.1c-.1-.3 0-.6.2-.9.2-.4.7-.6 1.2-.5.2 0 .5.1.8.2m1.8 4.7l.2.3c.2.2.4.4.6.3s.7 0 .8 0c.3.1.5.3.7.5.2.3.6.1.9.3s.6.4.2.6.4.6.5.6.2-.2.2-.5c0-.1.2-.5.5-.4s1.2 1.2 1.5.8.1-.9.2-1.1c0-.1.1-.2.2-.2.3.5.5.9.9 1.3l-4.1 4.1c-1.7-1.8-2.9-4.1-3.3-6.6M44 26.5l-4-4.1a21.62 21.62 0 0 1 13.8-5.7v5.8c-3.6.1-7 1.5-9.8 4m-5.2-5.3l-4.1-4.1c5.2-4.9 12-7.7 19.1-7.9V15c-5.6.2-11 2.4-15 6.2m-1.2 1.1c-3.8 4.1-6 9.4-6.2 15h-5.8c.2-7.1 3-13.9 7.9-19.1l4.1 4.1zm-6.2 16.6a17.33 17.33 0 0 0 .3 3.2c-.1 0-.1-.3-.4-.2s-1.4 2-1.9 2.8c-.4.7.2 2.2-.4 2.7-.6.2-1.2.3-1.8.3h-.1c-1-2.8-1.5-5.7-1.6-8.6l5.9-.2zm22.3 35.6c-9.1-.2-17.8-3.8-24.3-10.1l4.1-4.1c5.5 5.2 12.7 8.2 20.2 8.4v5.8zm0-7.4c-7.1-.2-13.9-3-19.1-7.9l.7-.7c.1.1.3.2.5.3.4.2.9.3 1.4.2.4-.1 1.2-.8 1.7-.8s1.3.2 1.8-.1-.3-1.3-.6-1.8c-.1-.1-.1-.2-.2-.3a22.5 22.5 0 0 0 14 5.3l-.2 5.8zm0-7.5a21.62 21.62 0 0 1-13.8-5.7l4.1-4.1c1.9 1.7 4.2 3 6.8 3.6-.9.4-1.3 1-1.2 1.5s-.6.8-.6 1.4.8 1 .9 1.6c.1.3.8.8 1.4 1.2.8.2 1.6.3 2.3.2l.1.3zm-.2-8c-.3-.2-.5.2-.9.4-2.8-.4-5.3-1.6-7.4-3.4l4.1-4.1c1.3 1 2.8 1.7 4.4 1.8 0 .2.2.4.2.8s-.3.6-.2.8 1 0 1.1-.3-.3-.5-.4-.8c-.1-.2-.1-.3-.2-.5h.3c.3 0 .6 0 .9-.1.1 0 .2-.1.2-.2s.1-.2.1-.3.1-.1.1-.2h0l.1.1c.1.2.3.8.5.7s.3-1 .2-1.2c-.2-.3-.2-.6 0-.9 0-.1.1-.7.3-.6s0 .6 0 .8c0 .3.2.7.5.5.2-.1.4-.4.6-.3s-.5.3-.6.5.3.3.2.4-.2 0-.3.1.2.7 0 .8-.9.3-1.1.4-.4-.1-.3-.2 0-.5-.2-.5-.2.1-.2.3.2.5.2.6-.3.2-.5.3c-.2.3-.5.6-.8.8s-.9.2-.9.4.3.2.4.3c.2.3.3.7-.1.9s-.9-.3-1.1-.2-.3.6-.4 1.2 1.1.8 1.7.5c.4-.2.3-.8.7-1s.3-.6.7-.5.3-.3.7-.3.4.3.9.4c.8.2.8.8.9.5s.2-.5-.4-.7-.9-.9-.4-.7c.6.3 1.1.3 1.2.6s.7.2.8.5c.1.5.5 0 .2-.3s-.2-.4 0-.6.3.1.6-.3-.1-.3-.2-.5 0-1.3.4-1.1.8-.1.6-.2.1-.7.2-.7 0 .4.1.5 1.1-.3 1.2.2-.7.8-.9.8c-.4 0-.7.4-1 .8s-.6.5-.4.9.6.3 1 .1.7-.5.9-.6c.4-.2.7 1 .5 1.2s-.6.3-.8.5c-.6.3-1.2.6-1.9.6-.4.1-.4.2-.5.6s-1.9.1-2.3.1.3-.9-.3-.8l-1.8.3c-.1 0-.7.5-1.2.1m5.3 9.3a3.25 3.25 0 0 1 1.3 1c.3.5.4.7.2 1.2-.5.9-.3 1.5.7 1.8.6.2.8.8 1.2 1.2-2.2.6-4.5.9-6.8 1v-5.8c1.1-.1 2.3-.2 3.4-.4m-3.4-1.2V59c1.3-.2 1 .6 1.9.3.3-.1.6 0 .8.2-.9 0-1.8.1-2.7.2m0 14.9v-5.9c3-.1 6-.6 8.9-1.6.1.1.2.1.3.1.4 0 .8-.2 1.1-.4a11.74 11.74 0 0 0 2.7-1.5c2.6-1.3 5.1-3.1 7.2-5.1l4.1 4.1c-6.5 6.4-15.2 10-24.3 10.3m16.2-52.3l1.4-1.4c.4.4.8.7 1.4.8.5.1.7.3.8.8s.6.7 1.1.8.8.7 1.2.7 1.7 1.8 2.2 2.4c.3.3.7.8 1 .4s.3-.3.5-.4c1.5 3.4 2.4 7.2 2.5 10.9h-5.8c0-1.3-.2-2.6-.5-3.9.2-.4.3-.8.3-1.3 0-.4-.4-.6-.7-.3-.2-.8-.5-1.5-.8-2.2-.1-.4-.2-.9-.3-1.3 0-.1-.2-.2-.4-.4-.2-.4-.3-.7-.5-1 .3-.2.4-.7 0-.6-.6.1-.2-.3-.4-.5s-.2 0-.3.1c-.8-1.2-1.6-2.3-2.6-3.4 0 0 0 0-.1-.2-.1.1-.1 0 0 0m3.5 33.9c-.2-.4-.3-.9-.5-1.3-.1-.4-.9-.4-.9-.2 0 .4 0 .8-.1 1.2v.1l-2.1-2.1c3.8-4.1 6-9.4 6.2-15h5.8c-.2 7.1-3 13.9-7.9 19l-.3-.3c.1-.4 0-.9-.2-1.4m-4.8 4c.3-.5.9-1.4 1.2-1.9s-.8-1.2-1.4-1.4-.6-.5-.6-1c.3-.2.6-.5.9-.8l4.1 4.1c-1.4 1.3-2.8 2.4-4.4 3.4-.1-.2.6-.9.8-1.2s-.8-.7-.6-1.2m2.5-23.9c-.5-.7.2-.8.9-1.1.4-.2.9.1.9-.1s.2-.6.4-.7.5-.3.6-.5c0 .2.1.4.1.6-.2.4-.3.7-.3 1.1 0 .3 0 .7.3 0 0-.1.1-.1.1-.2.2.7.2 1.3.2 1.9h-4.3v-.1c.3-.5 1.4-.4 1.1-.9m.8-8.2s0 .1-.1.1c-.1.1-.6-.7-.6-.1s.2.8.6.9.2.3.5.4a.76.76 0 0 1 .4.2c.5 1.1.8 2.2 1.1 3.4-.2.1-.3.2-.4.3-.2.2-.1.6-.3.9-.3.5-.4.8-1.2.6-.5-.2-.1-.8 0-1.3s.3-.4.3-.7-1-1.4-1.5-1-.4.8-.8 1.2c-.2.2-.4.2-.7 0s-.4-.4-.3-.6-.7-1.1-1-1.5c-.4-.5-1-.8-1.6-.8-.5-.9-1.2-1.8-1.9-2.6l4.1-4.1c1.4 1.5 2.5 3 3.4 4.7m-6.9 2.8l-.2.3c-.1.2-.6-.2-.7-.1s.7 1.1-.1.8-.3-.3-.3-.6-.7-.5-.3-.7 0-.5.4-.6.3-.5-.2-.6-.4 1.1-.7.9c-.3-.1-.6-.1-.9-.1l1.4-1.4a.9.9 0 0 0 .5.1c.2.8.7 1.4 1.1 2m-1.6 20.3c.6.1 1.3.2 1.9.4.4.2.7.6 1 .1a7.89 7.89 0 0 0 1.2-3c.2-1.5-.1-2-.3-2s-.6.4-1 .4c-.2 0-.2.4-.2.7s-.4.6-.5.4-.3-.1-.2.1-.8.1-1.2-.1c-.6-.3.7-.3 1.3-.8.5-.4 1-.9 1.5-1.4.3-.5.3-1.1.8-1.5s1.3-.3 1.4-.9.2-.5.5-.4 3.1-.1 3.1-1c0-.4-.6-.9-1.2-1-.4 0-.5-.8-.7-1.2s-.4-.8-.7-1.2H76a21.62 21.62 0 0 1-5.7 13.8l-.1-.1v-.4c.1-.8-.5-2.1-.7-1.9s0 .2-.6 1.1c-.2.3-.5.8-.9.8s-.4-.2-1-.1c-.5.1-1.1.1-1.6 0-.9-.3-1.8-.7-2.7-1.3.1-.1.4.1.4-.2s1.6.6 2 .7m15.7 12.1l-4.1-4.1c5.2-5.5 8.2-12.7 8.4-20.2H91c-.2 9.1-3.8 17.7-10.2 24.3m10.2-26h-5.9c-.1-4.3-1.1-8.5-3-12.4l.1-.1c.4-.4-1.9-3.4-2.3-3.7s-.8-.8-1.3-1.3c-.8-.8-1.6-1.7-2.2-2.6l4.3-4.3c6.5 6.6 10.1 15.3 10.3 24.4M55.4 1.7c9.1.2 17.8 3.8 24.4 10.1l-4 4c-.2-.1-.4-.2-.3-.4.2-.3-.3-.3-.4-1.1-.2-.8-.8-1.5-1.5-1.9-.5-.3-.8-.7-1.3-.9s-1.5-.8-2-.6c-.3.1-.7.2-1 .2a30.49 30.49 0 0 0-13.8-3.6l-.1-5.8zm0 7.5c4.3.1 8.4 1.2 12.3 3.1a4.17 4.17 0 0 0 .8 1.8c.2.5.5.9.8 1.4.3.3.1.9.2 1.4 0 .2.2.4.3.6v.8c0 .1.4.1.7-.1s.5-.6.9-.5.9.9 1.2 1.4L70.7 21c-.2-.4-.4-.9-.3-.9s.3.1.4.1c.4 0-.3-.3-.3-.4-.3-.3-.3-.7-.7-1s-1-.1-1.2-.5c-.4-.7-.9-1.3-1.6-1.8-.1 0 .8 1.1.5 1.3s-1.4-.7-1.5-.5 1.2.7 1.6 1.1c.2.2.6.8 1 1.3-3.8-2.9-8.4-4.5-13.2-4.7V9.2zm0 7.4a21.62 21.62 0 0 1 13.8 5.7l-4.1 4.1c-2.7-2.4-6.1-3.8-9.7-4v-5.8zm0 7.5c3.2.2 6.2 1.4 8.5 3.5l-.2.2-.2-.1c-.5-.2-1.5.8-1.3.9s.6-.4.8-.3h.1l-1.7 1.8c-.5.2-1 .6-1 .9v.1l-.6.6-.3-.3c-.5-.4-1-.7-1.6-.9.3-.2.4-.5.5-.9 0-.6-.2-.4-.5-.1s-.6.4-.8.7a4.53 4.53 0 0 0-1.6-.3v-5.8h-.1zm-.7 7.4c.1.2 0 .4-.1.5h0c-.2.2-.8-.5-.9.1-.2.6.4.3.4.4.3.4.7.6 1.2.7.4 0 1 0 1 .4 0 .2.5.2.6.4 0 .3.3.8.5.7s.5.1.6.3 0 .3-.1.5c-.3.3.3.2.4.8s-.5.2-.6.6c-.2.3-.4.5-.6.8-.1.1.1.3.2.2s.3-.4.6-.4.6 1.1.9 1.2.2.5.3.6-.5 0-.4.2.7.3.7.6c-.1.3-.3.6-.7.6-.3 0-.8-.7-.8-.5s.2.8.5.8 1-.3.7.1-.2 1-.4 1-.3 0-.1.3c.1.3 0 .6-.2.9-.2.2-.7 0-.7-.1s.6-.1.6-.4-.3-.4-.9-.2c-.3.1-.4-.1-.6-.1s-.8.7-.8.8v.5a1.69 1.69 0 0 1-.3 1c-.4.1-.7.1-1.1.1-1.6 0-3.2-.7-4.4-1.7.2-.1.5-.2.8-.2.3.1.4-.1.6-.2s.7.2 1 0 1-1.5.9-1.8.7-.8.6-.9-.2.1-.2 0 .2-.1 0-.5-.5-.2-.7-.2c-.3-.2-.8-.3-.9-.2s-.4-.2-.5-.1c-.1 0-.3.1-.3.3-.1.2.1.4.1.6-.1.4-.7.7-.7 1s-.3.1-.4.2 0 .3-.2.3-.5.5-.7.9c-.3-.4-.6-.9-.9-1.3.2-.1.4-.2.5-.1.3.2 1.5-1.9 1.3-2.5s-.5-.2-.8-.1-.3-.2-.2-.3 1.4-.1.7-.5c-.3-.2-1.1-.2-1-.5s.5 0 .6 0c.5.2.8-.8 1.1-.8.5 0 .3-1-.2-.7s-.7.2-.9.5-.7.7-.7.3c0-.2 1.1-.8 1.3-1.1.2-.2.4-.5.5-.8s1.5-.5 1.8-.7c.2-.2.4-.5.4-.8s-.4-.2-.5-.4.5 0 .5-.3-.5 0-.7-.2c0-.1 0-.1.1-.2.9-.3 1.5-.4 2.2-.4h.2M53.8 1.7v5.8c-7.5.2-14.7 3.2-20.2 8.4l-4.1-4.1C36 5.5 44.7 1.9 53.8 1.7M28.2 13l4.1 4.1c-5.2 5.5-8.2 12.7-8.4 20.2h-5.8c.3-9.1 3.9-17.8 10.1-24.3"/></svg>